<svg id="svg" version="1.1" xmlns="http://www.w3.org/2000/svg" xmlns:xlink="http://www.w3.org/1999/xlink" width="400" height="400" viewBox="0, 0, 400,400"><g id="svgg"><path id="path0" d="M259.961 88.398 C 193.103 88.562,177.605 88.698,177.093 89.122 C 176.369 89.724,177.965 94.217,179.740 96.571 C 181.165 98.462,184.120 103.608,184.844 105.459 C 185.200 106.372,186.205 108.172,187.078 109.459 C 190.132 113.966,190.761 115.015,191.606 117.000 C 192.074 118.099,192.869 119.539,193.372 120.200 C 193.875 120.860,194.782 122.390,195.388 123.600 C 195.994 124.810,196.922 126.377,197.451 127.082 C 197.980 127.787,198.765 129.185,199.195 130.189 C 199.625 131.192,200.464 132.500,201.058 133.094 C 201.803 133.839,202.148 134.613,202.169 135.587 C 202.195 136.755,202.363 137.023,203.140 137.133 C 204.011 137.256,204.062 137.395,203.820 139.005 C 203.568 140.684,203.597 140.747,204.680 140.871 C 205.865 141.007,206.236 142.086,205.455 143.125 C 205.145 143.537,205.280 143.595,206.080 143.394 C 207.001 143.163,207.125 143.277,207.368 144.569 C 207.574 145.668,207.830 146.000,208.472 146.000 C 209.232 146.000,209.286 146.163,209.066 147.775 C 208.832 149.479,208.866 149.554,209.911 149.675 C 210.857 149.784,210.993 149.968,210.943 151.078 C 210.898 152.101,211.058 152.380,211.743 152.478 C 212.382 152.569,212.631 152.925,212.724 153.881 C 212.806 154.728,213.110 155.245,213.624 155.408 C 214.189 155.587,214.400 156.019,214.400 156.999 C 214.400 158.090,214.570 158.369,215.300 158.472 C 216.093 158.585,216.187 158.803,216.093 160.300 C 215.993 161.882,216.056 162.000,217.003 162.000 C 217.813 162.000,218.069 162.244,218.260 163.200 C 218.392 163.860,218.728 164.400,219.007 164.400 C 219.580 164.400,220.000 165.275,220.000 166.470 C 220.000 166.938,220.334 167.362,220.800 167.484 C 221.424 167.647,221.600 168.030,221.600 169.219 C 221.600 170.496,221.746 170.765,222.500 170.872 C 223.311 170.987,223.388 171.190,223.278 172.923 C 223.188 174.327,223.296 174.826,223.678 174.775 C 224.821 174.622,225.200 174.837,225.200 175.637 C 225.200 176.138,225.521 176.559,226.000 176.684 C 226.508 176.817,226.800 177.230,226.800 177.814 C 226.800 179.283,227.225 180.000,228.094 180.000 C 228.811 180.000,228.874 180.178,228.651 181.573 C 228.412 183.065,228.456 183.153,229.500 183.273 C 230.497 183.388,230.592 183.538,230.515 184.874 C 230.443 186.122,230.566 186.368,231.315 186.474 C 231.884 186.555,232.246 186.927,232.330 187.515 C 232.401 188.019,232.806 188.647,233.230 188.911 C 233.764 189.245,234.000 189.845,234.000 190.868 C 234.000 192.094,234.152 192.366,234.900 192.472 C 235.676 192.582,235.784 192.806,235.683 194.100 C 235.586 195.333,235.696 195.600,236.303 195.600 C 237.798 195.600,238.372 196.771,237.368 197.775 C 236.792 198.351,236.845 198.429,237.973 198.655 C 238.847 198.829,239.283 199.190,239.457 199.883 C 239.592 200.422,240.080 201.003,240.541 201.174 C 241.237 201.431,241.358 201.764,241.259 203.142 C 241.164 204.450,241.275 204.800,241.783 204.800 C 242.138 204.800,242.837 205.068,243.336 205.395 C 244.727 206.306,296.788 206.322,297.298 205.411 C 297.486 205.075,298.103 204.800,298.670 204.800 C 299.739 204.800,299.749 204.739,299.125 202.002 C 299.056 201.700,299.495 201.207,300.100 200.905 C 300.927 200.493,301.200 200.064,301.200 199.178 C 301.200 198.438,301.407 198.000,301.757 198.000 C 302.408 198.000,302.800 197.146,302.800 195.730 C 302.800 195.062,303.068 194.655,303.600 194.516 C 304.118 194.381,304.400 193.970,304.400 193.353 C 304.400 192.555,304.601 192.400,305.632 192.400 C 306.811 192.400,306.852 192.345,306.588 191.100 C 306.436 190.385,306.287 189.648,306.256 189.463 C 306.225 189.277,306.560 188.917,307.000 188.663 C 308.126 188.012,308.304 187.679,308.100 186.614 C 307.970 185.933,308.142 185.609,308.733 185.421 C 309.206 185.271,309.653 184.671,309.804 183.982 C 310.002 183.080,310.287 182.800,311.008 182.800 C 311.528 182.800,312.064 182.620,312.200 182.400 C 312.336 182.180,312.257 182.000,312.024 182.000 C 311.125 182.000,311.572 180.060,312.500 179.928 C 313.252 179.821,313.404 179.544,313.427 178.236 C 313.448 177.007,313.641 176.603,314.327 176.349 C 315.004 176.098,315.200 175.701,315.200 174.575 C 315.200 173.485,315.389 173.076,315.962 172.926 C 316.443 172.800,316.817 172.235,316.974 171.400 C 317.184 170.280,317.377 170.090,318.211 170.181 C 319.333 170.305,319.362 170.251,318.772 169.148 C 318.250 168.172,318.905 167.200,320.084 167.200 C 320.777 167.200,320.839 167.014,320.605 165.632 C 320.364 164.204,320.424 164.052,321.268 163.932 C 321.940 163.836,322.253 163.471,322.408 162.600 C 322.566 161.716,322.837 161.406,323.440 161.424 C 324.138 161.445,324.254 161.210,324.229 159.824 C 324.204 158.442,324.332 158.181,325.085 158.074 C 325.834 157.968,325.957 157.722,325.885 156.474 C 325.807 155.129,325.899 154.989,326.930 154.871 C 328.010 154.747,328.048 154.671,327.795 153.171 C 327.575 151.868,327.655 151.556,328.265 151.330 C 329.206 150.982,329.586 150.415,329.594 149.347 C 329.597 148.846,329.916 148.411,330.366 148.293 C 330.789 148.182,331.192 147.668,331.266 147.146 C 331.356 146.514,331.706 146.157,332.324 146.069 C 333.144 145.953,333.233 145.752,333.124 144.269 C 333.015 142.798,333.107 142.585,333.900 142.472 C 334.654 142.365,334.800 142.096,334.800 140.819 C 334.800 139.647,334.979 139.246,335.574 139.091 C 336.082 138.958,336.440 138.395,336.618 137.444 C 336.816 136.391,337.093 136.000,337.645 136.000 C 338.217 136.000,338.400 135.710,338.400 134.800 C 338.400 133.784,338.555 133.600,339.407 133.600 C 340.342 133.600,340.407 133.478,340.307 131.900 C 340.213 130.403,340.307 130.185,341.100 130.072 C 341.854 129.965,342.000 129.696,342.000 128.419 C 342.000 127.252,342.180 126.846,342.766 126.693 C 343.189 126.582,343.592 126.068,343.666 125.546 C 343.754 124.928,344.106 124.556,344.685 124.474 C 345.434 124.368,345.557 124.122,345.485 122.874 C 345.408 121.537,345.503 121.388,346.504 121.273 C 347.533 121.155,347.601 121.032,347.504 119.473 C 347.413 118.005,347.510 117.784,348.300 117.672 C 349.054 117.565,349.200 117.296,349.200 116.019 C 349.200 114.849,349.380 114.446,349.971 114.292 C 350.502 114.153,350.783 113.671,350.871 112.745 C 350.971 111.701,351.179 111.405,351.800 111.420 C 353.095 111.454,352.950 97.466,351.654 97.272 C 350.949 97.167,350.800 96.871,350.800 95.572 C 350.800 94.260,350.666 94.000,349.990 94.000 C 349.494 94.000,349.033 93.612,348.800 93.000 C 348.591 92.450,348.149 92.000,347.818 92.000 C 347.486 92.000,347.102 91.550,346.964 91.000 C 346.750 90.148,346.483 90.000,345.157 90.000 C 343.896 90.000,343.600 89.856,343.600 89.243 C 343.600 88.634,342.531 87.715,342.267 88.098 C 342.230 88.151,305.193 88.286,259.961 88.398 " stroke="none" fill="#05b1a1" fill-rule="evenodd"></path><path id="path1" d="M58.000 89.145 C 58.000 89.855,57.763 90.000,56.600 90.000 C 55.461 90.000,55.200 90.151,55.200 90.810 C 55.200 91.298,54.816 91.766,54.234 91.987 C 53.703 92.189,53.155 92.713,53.015 93.152 C 52.876 93.590,52.366 94.006,51.881 94.075 C 51.132 94.181,51.017 94.419,51.112 95.654 C 51.207 96.894,51.084 97.142,50.277 97.345 C 49.331 97.582,49.330 97.590,49.502 102.691 C 49.597 105.501,49.497 108.565,49.280 109.500 C 48.901 111.129,48.924 111.200,49.824 111.200 C 50.588 111.200,50.815 111.472,51.036 112.652 C 51.211 113.585,51.575 114.173,52.054 114.298 C 52.598 114.440,52.800 114.863,52.800 115.857 C 52.800 116.949,53.002 117.297,53.819 117.607 C 54.725 117.952,54.808 118.149,54.574 119.397 C 54.340 120.646,54.405 120.800,55.168 120.800 C 56.011 120.800,56.920 122.238,56.513 122.927 C 56.406 123.107,56.707 123.355,57.180 123.479 C 57.727 123.622,58.126 124.128,58.273 124.866 C 58.401 125.505,58.848 126.212,59.267 126.436 C 59.841 126.743,60.001 127.202,59.915 128.295 C 59.815 129.554,59.933 129.780,60.800 129.998 C 61.767 130.242,61.971 130.880,61.557 132.365 C 61.463 132.701,61.795 133.029,62.378 133.177 C 63.050 133.348,63.460 133.828,63.689 134.713 C 63.875 135.428,64.284 136.000,64.611 136.000 C 65.014 136.000,65.200 136.429,65.200 137.357 C 65.200 138.482,65.376 138.758,66.232 138.972 C 67.188 139.212,67.245 139.350,66.997 140.816 C 66.742 142.326,66.778 142.400,67.777 142.400 C 69.008 142.400,69.529 143.382,68.863 144.448 C 68.237 145.449,68.279 145.798,68.958 145.235 C 69.690 144.627,70.800 145.679,70.800 146.982 C 70.800 147.570,71.091 147.983,71.600 148.116 C 72.174 148.266,72.400 148.662,72.400 149.517 C 72.400 150.343,72.703 150.907,73.389 151.356 C 74.181 151.875,74.312 152.183,74.047 152.902 C 73.579 154.166,73.909 154.800,75.033 154.800 C 75.869 154.800,76.100 155.061,76.093 156.000 C 76.093 156.110,75.969 156.605,75.819 157.100 C 75.585 157.872,75.693 158.000,76.583 158.000 C 77.408 158.000,77.668 158.238,77.853 159.165 C 77.989 159.843,78.402 160.412,78.843 160.527 C 79.409 160.675,79.600 161.089,79.600 162.163 C 79.600 162.953,79.746 163.600,79.924 163.600 C 80.893 163.600,81.688 164.688,81.279 165.453 C 80.774 166.396,81.106 167.049,82.200 167.267 C 82.837 167.394,82.991 167.727,82.956 168.899 C 82.918 170.161,83.029 170.359,83.741 170.285 C 84.369 170.221,84.623 170.482,84.785 171.360 C 84.906 172.015,85.337 172.638,85.773 172.791 C 86.353 172.994,86.553 173.455,86.573 174.631 C 86.596 175.967,86.741 176.220,87.546 176.334 C 88.408 176.456,88.469 176.606,88.241 178.034 C 88.008 179.491,88.058 179.600,88.952 179.600 C 90.003 179.600,90.449 180.307,90.203 181.582 C 90.091 182.166,90.256 182.400,90.780 182.400 C 91.542 182.400,92.000 183.145,92.000 184.386 C 92.000 184.782,92.348 185.198,92.773 185.309 C 93.337 185.456,93.581 185.929,93.673 187.056 C 93.778 188.330,93.965 188.623,94.746 188.734 C 95.608 188.856,95.669 189.006,95.441 190.434 C 95.208 191.891,95.258 192.000,96.152 192.000 C 97.132 192.000,97.600 192.657,97.600 194.033 C 97.600 194.455,97.867 194.800,98.192 194.800 C 98.518 194.800,98.900 195.295,99.040 195.900 C 99.181 196.505,99.589 197.234,99.948 197.521 C 100.336 197.831,100.600 198.632,100.600 199.498 C 100.600 200.719,100.762 200.996,101.600 201.206 C 102.463 201.422,102.588 201.657,102.512 202.928 C 102.438 204.168,102.552 204.400,103.233 204.400 C 103.766 204.400,104.180 204.796,104.446 205.560 C 104.668 206.198,105.199 206.811,105.625 206.922 C 106.183 207.068,106.400 207.475,106.400 208.372 C 106.400 209.333,106.629 209.707,107.395 209.998 C 108.281 210.335,108.344 210.494,107.978 211.457 C 107.451 212.845,107.719 213.505,108.876 213.669 C 109.670 213.782,109.788 214.008,109.715 215.274 C 109.643 216.522,109.766 216.768,110.515 216.874 C 111.094 216.956,111.446 217.328,111.534 217.946 C 111.608 218.468,112.011 218.982,112.434 219.093 C 113.000 219.241,113.200 219.650,113.200 220.657 C 113.200 221.745,113.403 222.097,114.206 222.402 C 115.119 222.749,115.188 222.933,114.955 224.392 C 114.712 225.912,114.753 226.000,115.706 226.000 C 116.881 226.000,117.374 226.928,116.784 228.029 C 116.429 228.693,116.508 228.800,117.354 228.800 C 118.117 228.800,118.394 229.064,118.596 229.982 C 118.742 230.645,119.195 231.271,119.628 231.409 C 120.218 231.596,120.400 232.024,120.400 233.227 C 120.400 234.541,120.534 234.800,121.213 234.800 C 122.157 234.800,122.616 235.695,122.187 236.700 C 121.730 237.773,121.675 238.885,122.100 238.460 C 123.019 237.541,124.096 238.472,123.889 240.009 C 123.715 241.308,123.785 241.477,124.422 241.310 C 124.968 241.167,125.309 241.486,125.757 242.559 C 126.101 243.383,126.640 244.000,127.015 244.000 C 127.556 244.000,127.624 244.274,127.405 245.571 C 127.151 247.071,127.190 247.147,128.270 247.271 C 129.444 247.405,129.601 247.955,129.002 249.849 C 128.771 250.578,132.280 251.030,132.561 250.307 C 132.584 250.248,133.007 249.622,133.501 248.916 C 133.996 248.210,134.400 247.451,134.400 247.230 C 134.400 247.009,134.940 246.213,135.600 245.461 C 136.260 244.709,136.800 243.827,136.800 243.501 C 136.800 243.175,137.136 242.479,137.547 241.954 C 137.957 241.429,138.878 239.830,139.592 238.400 C 140.306 236.970,141.126 235.530,141.415 235.200 C 141.704 234.870,142.636 233.250,143.487 231.600 C 144.338 229.950,145.521 227.839,146.117 226.908 C 146.713 225.977,147.200 225.077,147.201 224.908 C 147.201 224.739,147.922 223.610,148.803 222.400 C 149.684 221.190,150.693 219.570,151.046 218.800 C 151.399 218.030,152.208 216.626,152.844 215.680 C 153.480 214.734,154.000 213.640,154.000 213.250 C 154.000 212.859,154.450 212.117,155.000 211.600 C 155.550 211.083,156.000 210.495,156.000 210.292 C 156.000 210.089,156.405 209.365,156.900 208.682 C 157.395 207.999,157.996 206.891,158.235 206.220 C 158.475 205.549,159.015 204.934,159.435 204.854 C 160.483 204.653,160.789 204.044,160.519 202.696 C 160.335 201.776,160.450 201.512,161.108 201.340 C 161.652 201.198,162.010 200.671,162.181 199.763 C 162.394 198.623,162.613 198.395,163.518 198.368 C 164.113 198.351,164.399 198.254,164.154 198.153 C 163.362 197.827,164.121 195.416,165.059 195.280 C 165.736 195.181,165.880 194.888,165.844 193.680 C 165.807 192.434,165.942 192.180,166.700 192.072 C 167.432 191.968,167.600 191.690,167.600 190.586 C 167.600 189.638,167.841 189.099,168.400 188.800 C 168.840 188.565,169.200 188.104,169.200 187.777 C 169.200 187.450,169.695 186.970,170.300 186.710 C 170.905 186.451,171.457 186.202,171.528 186.158 C 171.598 186.114,171.419 185.700,171.131 185.238 C 170.489 184.209,171.062 183.063,172.312 182.876 C 173.023 182.770,173.109 182.551,172.915 181.353 C 172.720 180.153,172.812 179.922,173.564 179.725 C 174.128 179.578,174.524 179.081,174.673 178.334 C 174.801 177.695,175.229 176.998,175.625 176.787 C 176.020 176.575,176.402 176.004,176.472 175.517 C 176.552 174.962,176.972 174.542,177.600 174.389 C 178.306 174.216,178.563 173.917,178.474 173.372 C 178.138 171.312,178.213 171.047,179.200 170.803 C 180.071 170.587,180.183 170.368,180.072 169.107 C 179.973 167.981,180.125 167.561,180.755 167.224 C 181.219 166.976,181.677 166.194,181.827 165.395 C 181.971 164.628,182.319 164.000,182.601 164.000 C 182.883 164.000,183.226 163.550,183.364 163.000 C 183.550 162.261,183.881 162.000,184.635 162.000 C 185.587 162.000,185.646 161.889,185.527 160.300 C 185.415 158.796,185.504 158.585,186.300 158.472 C 187.054 158.365,187.200 158.096,187.200 156.819 C 187.200 155.671,187.383 155.245,187.939 155.100 C 188.378 154.985,188.781 154.397,188.929 153.653 C 189.112 152.739,189.401 152.400,189.998 152.400 C 190.671 152.400,190.771 152.223,190.563 151.395 C 190.267 150.215,190.962 149.200,192.067 149.200 C 192.729 149.200,192.800 149.005,192.575 147.807 C 192.341 146.562,192.425 146.371,193.357 146.016 C 194.101 145.734,194.400 145.330,194.400 144.610 C 194.400 143.703,194.809 143.426,196.008 143.522 C 196.122 143.531,196.148 142.832,196.066 141.969 C 195.917 140.410,196.326 140.083,198.089 140.349 C 198.247 140.373,198.195 139.913,197.972 139.327 C 197.424 137.884,197.766 137.200,199.037 137.200 C 200.032 137.200,200.081 137.117,199.795 135.900 C 199.391 134.178,199.438 132.654,199.899 132.500 C 200.335 132.355,198.682 128.739,197.385 127.000 C 196.892 126.340,195.994 124.810,195.388 123.600 C 194.782 122.390,193.875 120.860,193.372 120.200 C 192.869 119.539,192.074 118.099,191.606 117.000 C 190.761 115.015,190.132 113.966,187.078 109.459 C 186.205 108.172,185.200 106.372,184.844 105.459 C 184.120 103.608,181.165 98.462,179.740 96.571 C 178.275 94.628,176.396 89.764,176.912 89.248 C 177.222 88.938,161.065 88.812,119.810 88.804 C 88.166 88.798,61.314 88.679,60.138 88.541 C 58.142 88.307,58.000 88.347,58.000 89.145 M243.399 206.439 C 243.559 206.968,243.851 207.572,244.047 207.782 C 244.769 208.555,294.759 208.360,295.005 207.584 C 295.122 207.216,295.619 206.724,296.109 206.490 C 296.748 206.186,289.556 206.055,270.719 206.028 C 256.265 206.007,244.139 205.875,243.773 205.734 C 243.225 205.524,243.159 205.648,243.399 206.439 " stroke="none" fill="#7ac24e" fill-rule="evenodd"></path><path id="path2" d="M158.400 209.918 C 156.959 210.147,156.607 210.541,155.184 213.524 C 154.482 214.996,153.598 216.560,153.219 217.000 C 151.988 218.431,150.077 221.867,149.406 223.856 C 148.578 226.308,147.018 229.002,146.022 229.699 C 145.601 229.994,145.134 230.724,144.984 231.322 C 144.834 231.919,144.551 232.506,144.356 232.627 C 144.160 232.748,144.000 233.114,144.000 233.441 C 144.000 233.767,143.312 234.971,142.471 236.117 C 141.629 237.263,140.506 239.100,139.974 240.200 C 139.442 241.300,138.415 243.145,137.692 244.300 C 136.968 245.454,136.215 247.164,136.019 248.100 C 135.822 249.035,135.382 250.554,135.041 251.475 C 134.271 253.555,135.330 256.394,137.852 259.010 C 138.703 259.893,139.694 261.243,140.053 262.008 C 141.641 265.396,142.400 267.261,142.400 267.778 C 142.400 268.084,143.201 269.273,144.180 270.420 C 145.159 271.566,146.083 273.065,146.233 273.751 C 146.673 275.754,147.644 277.488,148.616 278.009 C 149.113 278.275,149.826 279.237,150.200 280.146 C 151.655 283.681,153.346 286.527,155.701 289.400 C 156.242 290.060,156.904 291.275,157.173 292.100 C 157.442 292.926,158.246 294.456,158.959 295.500 C 159.672 296.545,160.775 298.435,161.411 299.700 C 162.067 301.005,162.834 302.000,163.184 302.000 C 163.552 302.000,164.283 303.044,165.000 304.595 C 165.660 306.022,166.345 307.192,166.522 307.195 C 166.700 307.198,167.200 308.003,167.634 308.983 C 168.068 309.964,168.584 310.866,168.781 310.988 C 168.977 311.110,169.259 311.760,169.407 312.434 C 169.708 313.803,172.073 318.168,173.180 319.400 C 174.152 320.480,174.800 321.792,174.800 322.680 C 174.800 323.549,176.187 326.271,177.206 327.400 C 177.603 327.840,178.369 329.280,178.910 330.600 C 179.450 331.920,180.636 333.795,181.546 334.767 C 182.456 335.738,183.200 336.748,183.200 337.010 C 183.200 337.888,185.686 342.177,187.353 344.175 C 188.997 346.146,189.635 347.090,190.339 348.600 C 190.544 349.040,191.559 350.030,192.594 350.800 C 193.629 351.570,194.633 352.492,194.825 352.849 C 195.897 354.843,204.803 354.743,206.577 352.717 C 207.250 351.949,208.481 350.915,209.312 350.420 C 210.155 349.918,211.175 348.832,211.616 347.969 C 212.051 347.116,213.293 345.503,214.377 344.385 C 215.460 343.267,216.461 341.835,216.599 341.204 C 216.738 340.572,217.096 339.852,217.394 339.605 C 217.693 339.357,218.052 338.478,218.191 337.652 C 218.355 336.680,219.022 335.525,220.083 334.375 C 220.984 333.399,222.241 331.463,222.877 330.072 C 223.513 328.682,224.615 326.702,225.327 325.672 C 226.038 324.643,227.492 322.090,228.558 320.000 C 229.624 317.910,230.909 315.750,231.414 315.200 C 232.670 313.833,234.400 310.474,234.400 309.402 C 234.400 308.919,234.755 308.202,235.190 307.809 C 235.624 307.416,236.096 306.727,236.239 306.278 C 236.545 305.312,236.968 304.753,238.670 303.062 C 239.368 302.368,240.324 300.990,240.794 300.000 C 241.264 299.010,241.900 297.750,242.207 297.200 C 242.898 295.962,244.142 293.456,244.986 291.600 C 245.336 290.830,246.515 288.670,247.605 286.800 C 249.769 283.088,250.470 281.707,251.239 279.643 C 251.517 278.896,252.676 277.217,253.814 275.912 C 254.952 274.607,256.654 271.998,257.596 270.115 C 258.538 268.232,259.655 266.345,260.078 265.922 C 260.939 265.061,262.800 261.722,262.800 261.039 C 262.800 260.796,263.411 259.738,264.157 258.688 C 264.904 257.638,265.806 255.888,266.163 254.798 C 267.019 252.179,268.880 249.074,271.014 246.700 C 271.967 245.640,272.963 244.119,273.226 243.321 C 273.490 242.522,274.307 241.081,275.042 240.118 C 275.777 239.156,276.570 237.656,276.804 236.785 C 277.038 235.915,277.604 234.855,278.061 234.429 C 278.608 233.920,278.953 232.995,279.070 231.727 C 279.363 228.543,279.561 228.041,280.769 227.416 C 281.405 227.087,282.437 225.987,283.063 224.972 C 283.688 223.957,285.051 222.198,286.092 221.063 C 287.133 219.928,287.988 218.872,287.992 218.715 C 287.996 218.559,288.643 217.076,289.429 215.421 C 290.214 213.766,290.799 212.004,290.729 211.506 L 290.600 210.600 271.400 210.608 C 260.840 210.613,250.760 210.673,249.000 210.743 C 245.509 210.880,241.384 210.632,236.956 210.018 C 235.098 209.760,233.296 209.759,231.756 210.015 C 228.561 210.545,160.817 210.445,159.708 209.908 C 159.539 209.826,158.950 209.830,158.400 209.918 " stroke="none" fill="#bcd53f" fill-rule="evenodd"></path><path id="path3" d="M58.350 86.600 C 58.323 86.710,58.278 87.025,58.250 87.300 C 58.222 87.577,57.531 87.855,56.700 87.924 C 55.875 87.992,55.200 88.228,55.200 88.448 C 55.200 88.667,55.040 88.749,54.845 88.628 C 54.650 88.508,54.397 88.767,54.283 89.204 C 54.159 89.679,53.737 90.000,53.237 90.000 C 52.667 90.000,52.400 90.255,52.400 90.800 C 52.400 91.333,52.133 91.600,51.600 91.600 C 51.013 91.600,50.800 91.867,50.800 92.600 C 50.800 93.333,50.587 93.600,50.000 93.600 C 49.560 93.600,49.221 93.735,49.247 93.900 C 49.273 94.065,49.251 94.335,49.197 94.500 C 48.990 95.140,48.898 95.629,48.850 96.353 C 48.823 96.768,48.440 97.201,48.000 97.316 C 47.131 97.543,46.746 109.464,47.566 110.758 C 48.863 112.808,49.515 109.765,49.422 102.087 C 49.369 97.679,49.389 97.568,50.295 97.340 C 51.082 97.143,51.206 96.886,51.112 95.654 C 51.017 94.419,51.132 94.181,51.881 94.075 C 52.366 94.006,52.876 93.590,53.015 93.152 C 53.155 92.713,53.703 92.189,54.234 91.987 C 54.816 91.766,55.200 91.298,55.200 90.810 C 55.200 90.151,55.461 90.000,56.600 90.000 C 57.763 90.000,58.000 89.855,58.000 89.145 C 58.000 88.347,58.142 88.307,60.136 88.541 C 62.372 88.804,119.134 88.767,259.200 88.412 C 348.859 88.184,343.600 88.132,343.600 89.243 C 343.600 89.856,343.896 90.000,345.157 90.000 C 346.483 90.000,346.750 90.148,346.964 91.000 C 347.102 91.550,347.486 92.000,347.818 92.000 C 348.149 92.000,348.591 92.450,348.800 93.000 C 349.033 93.612,349.494 94.000,349.990 94.000 C 350.666 94.000,350.800 94.260,350.800 95.572 C 350.800 96.882,350.946 97.166,351.672 97.272 C 352.534 97.399,352.543 97.480,352.442 104.300 C 352.334 111.559,352.594 112.446,354.320 110.720 C 355.512 109.528,354.835 97.407,353.557 97.073 C 352.987 96.924,352.800 96.511,352.800 95.400 C 352.800 94.276,352.615 93.877,352.022 93.722 C 351.595 93.610,351.190 93.132,351.122 92.659 C 351.046 92.121,350.663 91.752,350.100 91.672 C 349.522 91.590,349.200 91.268,349.200 90.772 C 349.200 90.289,348.924 90.000,348.464 90.000 C 348.060 90.000,347.523 89.550,347.273 89.000 C 346.922 88.229,346.516 88.000,345.505 88.000 C 344.626 88.000,344.028 87.736,343.693 87.200 C 343.216 86.436,58.541 85.838,58.350 86.600 M351.080 111.453 C 350.926 111.607,350.800 112.260,350.800 112.904 C 350.800 113.738,350.570 114.135,350.000 114.284 C 349.376 114.447,349.200 114.830,349.200 116.019 C 349.200 117.296,349.054 117.565,348.300 117.672 C 347.641 117.766,347.400 118.068,347.400 118.800 C 347.400 119.532,347.641 119.834,348.300 119.928 C 349.033 120.032,349.200 119.865,349.200 119.028 C 349.200 118.269,349.408 118.000,349.995 118.000 C 350.613 118.000,350.847 117.645,351.045 116.411 C 351.217 115.333,351.547 114.744,352.071 114.577 C 352.683 114.383,352.819 114.027,352.722 112.869 C 352.606 111.474,351.776 110.758,351.080 111.453 M49.347 111.906 C 48.469 112.476,48.820 114.390,49.850 114.648 C 50.719 114.866,51.092 115.881,50.836 117.334 C 50.804 117.518,51.142 117.764,51.589 117.881 C 52.300 118.067,52.604 118.711,52.447 119.700 C 52.421 119.865,52.593 120.000,52.829 120.000 C 53.572 120.000,54.330 121.035,54.468 122.239 C 54.679 124.090,56.505 124.181,56.328 122.331 C 56.228 121.297,55.996 120.971,55.286 120.870 C 54.499 120.759,54.388 120.538,54.486 119.270 C 54.584 118.009,54.472 117.782,53.700 117.672 C 52.941 117.564,52.800 117.298,52.800 115.972 C 52.800 114.698,52.657 114.400,52.045 114.400 C 51.498 114.400,51.216 114.013,51.026 113.000 C 50.770 111.636,50.268 111.308,49.347 111.906 M345.345 121.800 C 344.956 122.813,345.526 123.666,346.498 123.528 C 347.924 123.326,348.030 121.200,346.614 121.200 C 346.042 121.200,345.471 121.470,345.345 121.800 M56.468 124.350 C 55.585 124.909,56.054 126.934,57.124 127.184 C 57.632 127.303,58.037 127.535,58.024 127.700 C 57.886 129.451,58.079 130.096,58.800 130.284 C 59.240 130.399,59.600 130.804,59.600 131.185 C 59.600 131.565,59.950 132.193,60.378 132.580 C 60.806 132.967,61.211 133.850,61.278 134.542 C 61.369 135.485,61.620 135.831,62.278 135.925 C 62.999 136.027,63.178 136.351,63.278 137.725 C 63.363 138.893,63.582 139.400,64.000 139.400 C 64.330 139.400,64.656 139.797,64.726 140.283 C 64.795 140.768,65.286 141.578,65.819 142.083 C 66.351 142.587,66.789 143.405,66.793 143.900 C 66.800 144.854,68.485 145.233,69.002 144.396 C 69.509 143.576,68.764 142.400,67.738 142.400 C 66.785 142.400,66.744 142.313,66.997 140.816 C 67.244 139.357,67.185 139.211,66.255 138.978 C 65.482 138.784,65.216 138.429,65.123 137.462 C 65.045 136.661,64.781 136.200,64.400 136.200 C 64.044 136.200,63.719 135.711,63.600 135.000 C 63.456 134.137,63.147 133.764,62.500 133.672 C 62.005 133.602,61.583 133.332,61.563 133.072 C 61.543 132.812,61.498 132.060,61.463 131.400 C 61.414 130.472,61.189 130.170,60.470 130.068 C 59.627 129.949,59.565 129.794,59.800 128.398 C 60.016 127.122,59.927 126.789,59.276 126.441 C 58.845 126.210,58.378 125.566,58.238 125.011 C 57.978 123.972,57.402 123.757,56.468 124.350 M343.867 124.667 C 343.720 124.813,343.600 125.280,343.600 125.704 C 343.600 126.138,343.251 126.566,342.800 126.684 C 342.176 126.847,342.000 127.230,342.000 128.419 C 342.000 129.696,341.854 129.965,341.100 130.072 C 340.441 130.166,340.200 130.468,340.200 131.200 C 340.200 131.932,340.441 132.234,341.100 132.328 C 341.788 132.425,342.000 132.258,342.000 131.618 C 342.000 131.092,342.373 130.639,343.000 130.400 C 343.797 130.097,344.000 129.743,344.000 128.657 C 344.000 127.630,344.197 127.242,344.800 127.084 C 345.900 126.797,345.959 124.400,344.867 124.400 C 344.463 124.400,344.013 124.520,343.867 124.667 M199.484 133.200 C 199.164 134.426,200.053 136.816,201.080 137.490 C 201.586 137.821,202.000 138.444,202.000 138.874 C 202.000 140.165,203.769 139.665,203.924 138.331 C 204.023 137.474,203.864 137.236,203.124 137.131 C 202.354 137.022,202.195 136.751,202.171 135.514 C 202.150 134.412,201.874 133.816,201.108 133.214 C 199.830 132.208,199.744 132.208,199.484 133.200 M338.400 134.800 C 338.400 135.710,338.217 136.000,337.645 136.000 C 337.093 136.000,336.816 136.391,336.618 137.444 C 336.440 138.395,336.082 138.958,335.574 139.091 C 334.976 139.247,334.800 139.647,334.800 140.847 C 334.800 142.118,334.659 142.400,334.024 142.400 C 333.045 142.400,332.676 142.979,333.001 144.004 C 333.361 145.139,335.200 145.105,335.200 143.963 C 335.200 143.462,335.521 143.041,336.000 142.916 C 336.627 142.752,336.800 142.370,336.800 141.153 C 336.800 140.056,336.972 139.600,337.386 139.600 C 338.019 139.600,338.873 138.300,338.769 137.495 C 338.626 136.385,338.840 136.000,339.600 136.000 C 340.222 136.000,340.400 135.733,340.400 134.800 C 340.400 133.787,340.244 133.600,339.400 133.600 C 338.556 133.600,338.400 133.787,338.400 134.800 M197.816 137.700 C 197.728 137.975,197.689 138.650,197.728 139.200 C 197.783 139.960,197.584 140.231,196.900 140.328 C 196.161 140.433,196.000 140.708,196.000 141.865 C 196.000 142.938,195.809 143.325,195.200 143.484 C 194.679 143.620,194.400 144.030,194.400 144.657 C 194.400 145.323,194.083 145.740,193.372 146.011 C 192.618 146.297,192.379 146.641,192.472 147.301 C 192.647 148.528,194.371 148.798,194.672 147.645 C 194.790 147.195,195.244 146.713,195.681 146.574 C 196.334 146.367,196.450 146.041,196.328 144.761 C 196.194 143.360,196.272 143.200,197.089 143.200 C 197.995 143.200,198.053 143.063,198.177 140.616 C 198.198 140.185,198.573 139.735,199.008 139.616 C 200.327 139.256,200.334 137.200,199.016 137.200 C 198.443 137.200,197.903 137.425,197.816 137.700 M203.671 141.871 C 203.850 143.437,205.788 143.555,205.795 142.000 C 205.799 141.199,205.576 140.974,204.671 140.871 C 203.643 140.753,203.553 140.843,203.671 141.871 M205.632 143.762 C 205.040 144.474,205.494 146.400,206.253 146.400 C 206.565 146.400,206.991 146.850,207.200 147.400 C 207.771 148.902,209.200 148.760,209.200 147.200 C 209.200 146.276,209.020 146.000,208.418 146.000 C 207.841 146.000,207.567 145.633,207.374 144.600 C 207.099 143.135,206.422 142.810,205.632 143.762 M68.820 145.376 C 68.030 146.327,68.457 148.180,69.500 148.328 C 70.279 148.438,70.400 148.695,70.400 150.228 C 70.400 151.733,70.520 152.000,71.200 152.000 C 71.675 152.000,72.000 152.267,72.000 152.656 C 72.000 153.017,72.315 153.551,72.700 153.843 C 73.392 154.369,74.358 154.624,73.892 154.159 C 73.760 154.026,73.815 153.487,74.015 152.961 C 74.317 152.167,74.211 151.894,73.389 151.356 C 72.703 150.907,72.400 150.343,72.400 149.517 C 72.400 148.662,72.174 148.266,71.600 148.116 C 71.091 147.983,70.800 147.570,70.800 146.982 C 70.800 145.450,69.580 144.460,68.820 145.376 M331.467 146.267 C 331.320 146.413,331.200 146.880,331.200 147.304 C 331.200 147.738,330.851 148.166,330.400 148.284 C 329.918 148.410,329.598 148.833,329.594 149.347 C 329.586 150.419,329.206 150.982,328.251 151.335 C 327.561 151.591,327.516 153.649,328.185 154.318 C 328.480 154.614,329.600 153.298,329.600 152.656 C 329.600 152.326,330.005 151.998,330.500 151.928 C 331.244 151.822,331.421 151.512,331.521 150.141 C 331.612 148.893,331.835 148.432,332.421 148.279 C 333.480 148.002,333.520 146.000,332.467 146.000 C 332.063 146.000,331.613 146.120,331.467 146.267 M190.804 149.795 C 190.521 150.136,190.418 150.818,190.563 151.395 C 190.771 152.223,190.671 152.400,189.998 152.400 C 189.401 152.400,189.112 152.739,188.929 153.653 C 188.781 154.397,188.378 154.985,187.939 155.100 C 187.380 155.246,187.200 155.672,187.200 156.847 C 187.200 158.118,187.059 158.400,186.424 158.400 C 185.445 158.400,185.076 158.979,185.401 160.004 C 185.747 161.092,187.600 161.112,187.600 160.027 C 187.600 159.602,187.956 159.141,188.392 159.003 C 188.827 158.864,189.166 158.627,189.145 158.476 C 188.905 156.794,189.278 155.645,190.100 155.528 C 190.848 155.422,191.021 155.113,191.123 153.700 C 191.222 152.326,191.395 152.000,192.023 152.000 C 192.644 152.000,192.800 151.720,192.800 150.600 C 192.800 149.062,191.760 148.643,190.804 149.795 M208.871 150.671 C 209.050 152.238,211.000 152.357,211.000 150.800 C 211.000 150.000,210.774 149.774,209.871 149.671 C 208.843 149.553,208.753 149.643,208.871 150.671 M210.800 153.810 C 210.800 154.938,210.984 155.323,211.600 155.484 C 212.142 155.626,212.402 156.033,212.406 156.747 C 212.413 157.999,212.752 158.567,213.700 158.917 C 214.085 159.059,214.400 159.553,214.400 160.015 C 214.400 160.658,214.612 160.826,215.300 160.728 C 215.959 160.634,216.200 160.332,216.200 159.600 C 216.200 158.868,215.959 158.566,215.300 158.472 C 214.570 158.369,214.400 158.090,214.400 156.999 C 214.400 156.019,214.189 155.587,213.624 155.408 C 213.110 155.245,212.806 154.728,212.724 153.881 C 212.527 151.844,210.800 151.780,210.800 153.810 M73.740 155.668 C 73.877 156.181,73.992 156.735,73.995 156.900 C 73.998 157.065,74.462 157.200,75.027 157.200 C 76.630 157.200,76.278 155.055,74.645 154.868 C 73.608 154.750,73.516 154.832,73.740 155.668 M325.786 155.223 C 325.188 156.189,325.950 157.499,326.994 157.299 C 328.454 157.020,328.481 154.800,327.024 154.800 C 326.487 154.800,325.930 154.990,325.786 155.223 M75.600 159.400 C 75.600 160.617,75.728 160.800,76.574 160.800 C 77.403 160.800,77.519 160.953,77.359 161.838 C 77.091 163.316,77.531 164.400,78.399 164.400 C 78.841 164.400,79.196 164.732,79.272 165.216 C 79.342 165.665,79.560 166.009,79.755 165.982 C 80.335 165.900,80.787 166.910,80.794 168.300 C 80.799 169.483,80.911 169.600,82.027 169.600 C 83.521 169.600,83.674 167.533,82.200 167.257 C 81.108 167.053,80.773 166.398,81.279 165.453 C 81.688 164.688,80.893 163.600,79.924 163.600 C 79.746 163.600,79.600 162.953,79.600 162.163 C 79.600 161.089,79.409 160.675,78.843 160.527 C 78.402 160.412,77.989 159.843,77.853 159.165 C 77.477 157.284,75.600 157.481,75.600 159.400 M324.284 158.250 C 323.506 159.028,324.004 160.800,325.000 160.800 C 325.800 160.800,326.000 160.600,326.000 159.800 C 326.000 159.250,326.045 158.665,326.100 158.500 C 326.232 158.104,324.648 157.885,324.284 158.250 M322.622 161.670 C 322.526 161.962,322.389 162.560,322.319 163.000 C 322.243 163.482,321.823 163.852,321.266 163.932 C 320.424 164.052,320.364 164.205,320.605 165.632 C 320.839 167.014,320.777 167.200,320.084 167.200 C 319.073 167.200,318.316 168.114,318.636 168.949 C 319.104 170.169,320.800 169.761,320.800 168.429 C 320.800 167.656,321.140 166.990,321.800 166.471 C 322.350 166.039,322.800 165.417,322.800 165.089 C 322.800 164.761,323.172 164.396,323.628 164.277 C 324.291 164.103,324.430 163.798,324.328 162.734 C 324.196 161.368,322.975 160.606,322.622 161.670 M183.364 163.000 C 183.226 163.550,182.886 164.000,182.608 164.000 C 182.329 164.000,181.990 164.705,181.851 165.573 C 181.674 166.681,181.354 167.224,180.772 167.409 C 180.101 167.622,179.969 167.945,180.073 169.126 C 180.177 170.318,180.056 170.607,179.400 170.729 C 178.232 170.946,177.886 171.411,178.187 172.360 C 178.545 173.486,180.400 173.543,180.400 172.427 C 180.400 172.002,180.760 171.540,181.200 171.400 C 181.683 171.247,182.024 170.761,182.060 170.173 C 182.093 169.638,182.138 168.975,182.160 168.700 C 182.182 168.425,182.560 168.103,183.000 167.984 C 183.611 167.819,183.829 167.370,183.923 166.084 C 184.022 164.725,184.196 164.400,184.823 164.400 C 185.420 164.400,185.600 164.121,185.600 163.200 C 185.600 161.583,183.761 161.418,183.364 163.000 M216.000 163.172 C 216.000 164.083,216.200 164.373,216.900 164.472 C 217.817 164.602,217.863 164.703,217.950 166.800 C 217.988 167.717,218.189 168.000,218.800 168.000 C 219.446 168.000,219.600 168.267,219.600 169.386 C 219.600 170.346,219.837 170.899,220.373 171.186 C 220.798 171.413,221.263 171.970,221.407 172.423 C 221.798 173.655,223.400 173.315,223.400 172.000 C 223.400 171.268,223.159 170.966,222.500 170.872 C 221.746 170.765,221.600 170.496,221.600 169.219 C 221.600 168.030,221.424 167.647,220.800 167.484 C 220.334 167.362,220.000 166.938,220.000 166.470 C 220.000 165.275,219.580 164.400,219.007 164.400 C 218.728 164.400,218.392 163.860,218.260 163.200 C 217.910 161.451,216.000 161.428,216.000 163.172 M83.300 170.267 C 82.408 170.623,82.671 173.200,83.600 173.200 C 84.192 173.200,84.400 173.467,84.400 174.226 C 84.400 175.568,85.077 176.800,85.814 176.800 C 86.156 176.800,86.400 177.177,86.400 177.704 C 86.400 179.044,87.841 179.844,88.154 178.678 C 88.588 177.058,88.421 176.459,87.500 176.328 C 86.747 176.221,86.596 175.944,86.573 174.631 C 86.553 173.455,86.353 172.994,85.773 172.791 C 85.340 172.640,84.912 172.024,84.800 171.393 C 84.594 170.234,84.173 169.917,83.300 170.267 M316.970 171.418 C 316.817 172.237,316.440 172.801,315.962 172.926 C 315.389 173.076,315.200 173.485,315.200 174.575 C 315.200 175.701,315.004 176.098,314.327 176.349 C 313.641 176.603,313.448 177.007,313.427 178.236 C 313.404 179.544,313.252 179.821,312.500 179.928 C 311.135 180.122,311.225 182.000,312.600 182.000 C 313.431 182.000,313.600 181.809,313.600 180.870 C 313.600 180.181,313.991 179.372,314.600 178.800 C 315.150 178.283,315.600 177.643,315.600 177.377 C 315.600 177.111,315.960 176.799,316.400 176.684 C 317.033 176.519,317.200 176.138,317.200 174.865 C 317.200 173.501,317.337 173.236,318.100 173.128 C 319.429 172.939,319.436 170.222,318.108 170.155 C 317.403 170.119,317.164 170.385,316.970 171.418 M177.600 174.356 C 176.986 174.526,176.551 174.974,176.472 175.517 C 176.402 176.004,176.020 176.575,175.625 176.787 C 175.229 176.998,174.801 177.695,174.673 178.334 C 174.524 179.081,174.128 179.578,173.564 179.725 C 172.812 179.922,172.720 180.153,172.915 181.353 C 173.109 182.551,173.023 182.770,172.312 182.876 C 170.442 183.155,170.331 185.600,172.187 185.600 C 173.041 185.600,173.200 185.416,173.200 184.424 C 173.200 183.777,173.383 183.134,173.607 182.996 C 173.830 182.858,173.922 182.597,173.811 182.418 C 173.700 182.238,173.917 182.115,174.295 182.145 C 174.672 182.175,175.008 181.975,175.040 181.700 C 175.073 181.425,175.123 181.020,175.150 180.800 C 175.178 180.580,175.560 180.400,176.000 180.400 C 176.440 180.400,176.779 180.265,176.753 180.100 C 176.473 178.331,176.878 176.867,177.704 176.660 C 178.378 176.491,178.620 176.124,178.657 175.217 C 178.684 174.547,178.683 174.018,178.653 174.040 C 178.624 174.062,178.150 174.204,177.600 174.356 M223.700 174.692 C 222.832 174.995,223.089 176.800,224.000 176.800 C 224.617 176.800,224.800 177.067,224.800 177.967 C 224.800 179.655,225.181 180.400,226.043 180.400 C 226.517 180.400,226.800 180.681,226.800 181.151 C 226.800 182.260,227.949 183.125,228.424 182.374 C 229.081 181.337,228.866 180.000,228.043 180.000 C 227.221 180.000,226.800 179.260,226.800 177.814 C 226.800 177.230,226.508 176.817,226.000 176.684 C 225.539 176.563,225.200 176.138,225.200 175.680 C 225.200 174.840,224.534 174.401,223.700 174.692 M88.267 179.867 C 87.701 180.432,88.032 181.683,88.800 181.884 C 89.240 181.999,89.623 182.252,89.650 182.447 C 89.678 182.641,89.745 182.980,89.800 183.200 C 89.855 183.420,89.923 184.050,89.950 184.600 C 89.986 185.317,90.227 185.600,90.800 185.600 C 91.417 185.600,91.600 185.867,91.600 186.767 C 91.600 188.338,91.969 189.200,92.643 189.200 C 92.949 189.200,93.223 189.380,93.250 189.600 C 93.278 189.820,93.323 190.207,93.350 190.460 C 93.442 191.304,95.130 191.252,95.401 190.397 C 95.722 189.386,95.354 188.800,94.399 188.800 C 93.799 188.800,93.621 188.455,93.523 187.100 C 93.442 185.980,93.226 185.435,92.889 185.504 C 92.362 185.611,92.237 185.375,91.826 183.500 C 91.665 182.765,91.330 182.400,90.815 182.400 C 90.256 182.400,90.089 182.177,90.203 181.582 C 90.505 180.017,89.238 178.895,88.267 179.867 M309.804 183.982 C 309.653 184.671,309.206 185.271,308.733 185.421 C 308.142 185.609,307.970 185.933,308.100 186.614 C 308.305 187.681,308.123 188.017,307.000 188.653 C 306.270 189.066,306.155 189.752,306.595 191.069 C 306.875 191.909,308.400 191.175,308.400 190.200 C 308.400 189.630,308.697 189.216,309.200 189.084 C 309.915 188.897,310.295 187.469,310.047 185.900 C 310.021 185.735,310.450 185.600,311.000 185.600 C 311.876 185.600,312.000 185.427,312.000 184.200 C 312.000 182.279,310.217 182.102,309.804 183.982 M228.400 184.400 C 228.400 185.531,228.507 185.641,229.500 185.527 C 230.373 185.426,230.600 185.194,230.600 184.400 C 230.600 183.606,230.373 183.374,229.500 183.273 C 228.507 183.159,228.400 183.269,228.400 184.400 M169.900 186.833 C 169.515 187.057,169.200 187.494,169.200 187.806 C 169.200 188.117,168.840 188.565,168.400 188.800 C 167.841 189.099,167.600 189.638,167.600 190.586 C 167.600 191.690,167.432 191.968,166.700 192.072 C 165.942 192.180,165.807 192.434,165.844 193.680 C 165.880 194.888,165.736 195.181,165.059 195.280 C 164.126 195.415,163.351 197.849,164.154 198.119 C 165.186 198.467,165.991 197.853,166.240 196.528 C 166.383 195.767,166.837 194.934,167.250 194.676 C 167.662 194.418,168.000 193.821,168.000 193.348 C 168.000 192.775,168.233 192.507,168.700 192.544 C 169.248 192.588,169.427 192.232,169.523 190.900 C 169.629 189.430,169.770 189.200,170.563 189.200 C 171.334 189.200,171.474 188.999,171.440 187.933 C 171.396 186.532,170.956 186.219,169.900 186.833 M230.400 187.772 C 230.400 188.933,230.549 189.200,231.200 189.200 C 231.825 189.200,232.000 189.467,232.000 190.419 C 232.000 191.206,232.355 191.967,233.000 192.565 C 233.550 193.075,234.000 193.786,234.000 194.146 C 234.000 195.084,235.494 194.965,235.799 194.004 C 236.124 192.979,235.755 192.400,234.776 192.400 C 234.146 192.400,234.000 192.118,234.000 190.896 C 234.000 189.845,233.768 189.248,233.230 188.911 C 232.806 188.647,232.401 188.019,232.330 187.515 C 232.090 185.827,230.400 186.052,230.400 187.772 M95.354 192.577 C 94.954 193.619,95.393 194.601,96.248 194.575 C 96.953 194.554,97.066 194.783,97.035 196.175 C 97.006 197.546,97.134 197.819,97.860 197.923 C 98.484 198.011,98.790 198.420,98.976 199.412 C 99.117 200.163,99.478 200.918,99.778 201.089 C 100.078 201.260,100.385 201.850,100.462 202.400 C 100.646 203.735,102.214 204.015,102.605 202.783 C 102.913 201.813,102.577 201.350,101.400 201.123 C 100.756 200.999,100.616 200.687,100.683 199.527 C 100.747 198.425,100.594 198.039,100.037 197.894 C 99.576 197.773,99.208 197.170,99.036 196.252 C 98.873 195.383,98.533 194.800,98.189 194.800 C 97.874 194.800,97.494 194.305,97.346 193.700 C 96.955 192.101,95.789 191.443,95.354 192.577 M304.400 193.353 C 304.400 193.970,304.118 194.381,303.600 194.516 C 303.068 194.655,302.800 195.062,302.800 195.730 C 302.800 197.146,302.408 198.000,301.757 198.000 C 301.403 198.000,301.200 198.443,301.200 199.213 C 301.200 200.006,300.958 200.511,300.500 200.675 C 299.058 201.189,298.863 201.562,299.299 202.982 C 299.781 204.551,301.200 204.194,301.200 202.504 C 301.200 201.867,301.436 201.600,302.000 201.600 C 302.440 201.600,302.822 201.330,302.850 201.000 C 302.877 200.670,302.945 200.220,303.000 200.000 C 303.055 199.780,303.123 199.261,303.150 198.847 C 303.178 198.432,303.560 197.999,304.000 197.884 C 304.600 197.727,304.800 197.338,304.800 196.332 C 304.800 195.324,305.024 194.891,305.700 194.595 C 307.184 193.944,307.133 192.400,305.628 192.400 C 304.601 192.400,304.400 192.556,304.400 193.353 M235.600 196.800 C 235.600 197.799,235.760 198.000,236.557 198.000 C 237.661 198.000,238.226 196.954,237.558 196.149 C 236.700 195.116,235.600 195.481,235.600 196.800 M162.181 199.763 C 162.011 200.669,161.652 201.198,161.111 201.339 C 160.469 201.507,160.342 201.783,160.508 202.651 C 160.786 204.108,160.480 204.800,159.557 204.800 C 158.983 204.800,158.800 205.089,158.800 206.000 L 158.800 207.200 162.500 207.198 C 164.535 207.196,183.545 207.207,204.744 207.221 C 225.943 207.235,243.363 207.171,243.455 207.078 C 243.919 206.614,242.744 204.800,241.979 204.800 C 241.241 204.800,241.153 204.598,241.259 203.142 C 241.358 201.764,241.237 201.431,240.541 201.174 C 240.080 201.003,239.592 200.421,239.456 199.879 C 239.049 198.259,237.243 198.158,237.380 199.763 C 237.537 201.597,237.539 201.600,238.360 201.600 C 238.972 201.600,239.147 201.949,239.263 203.400 L 239.406 205.200 200.883 205.200 L 162.360 205.200 162.555 203.500 C 162.662 202.565,162.761 201.755,162.775 201.700 C 162.789 201.645,163.160 201.600,163.600 201.600 C 164.267 201.600,164.400 201.333,164.400 200.000 C 164.400 197.768,162.591 197.575,162.181 199.763 M102.400 205.772 C 102.400 206.557,102.535 207.179,102.700 207.153 C 103.921 206.960,104.197 207.274,104.141 208.786 C 104.095 210.023,104.250 210.425,104.841 210.613 C 105.259 210.746,105.600 211.023,105.600 211.230 C 105.600 211.436,106.050 211.997,106.600 212.475 C 107.241 213.032,107.600 213.765,107.600 214.515 C 107.600 215.288,107.941 215.953,108.604 216.474 C 109.156 216.909,109.504 217.431,109.378 217.636 C 108.957 218.316,109.643 219.600,110.427 219.600 C 111.065 219.600,111.200 219.886,111.200 221.237 C 111.200 222.538,111.364 222.918,112.000 223.084 C 112.443 223.200,112.800 223.630,112.800 224.047 C 112.800 224.461,113.055 224.800,113.367 224.800 C 113.678 224.800,114.014 225.025,114.112 225.300 C 114.362 226.002,114.662 225.607,114.969 224.172 C 115.195 223.118,115.087 222.877,114.216 222.480 C 113.458 222.135,113.200 221.714,113.200 220.823 C 113.200 220.052,112.926 219.482,112.428 219.215 C 112.003 218.988,111.598 218.396,111.528 217.901 C 111.446 217.327,111.079 216.954,110.515 216.874 C 109.769 216.768,109.643 216.522,109.715 215.302 C 109.788 214.061,109.658 213.820,108.800 213.601 C 107.947 213.384,107.815 213.145,107.905 211.970 C 107.989 210.869,107.830 210.515,107.105 210.197 C 106.445 209.908,106.167 209.405,106.078 208.341 C 105.993 207.318,105.734 206.824,105.212 206.687 C 104.803 206.580,104.408 206.067,104.334 205.546 C 104.091 203.832,102.400 204.029,102.400 205.772 M296.943 205.707 C 296.472 206.198,295.780 206.848,295.406 207.150 C 294.986 207.490,294.795 208.063,294.907 208.648 C 295.007 209.169,294.845 209.797,294.548 210.043 C 293.935 210.552,293.982 213.268,294.600 213.070 C 294.820 212.999,295.245 212.437,295.545 211.821 C 295.845 211.205,296.430 210.613,296.845 210.504 C 297.421 210.353,297.600 209.939,297.600 208.753 C 297.600 207.496,297.744 207.200,298.357 207.200 C 299.105 207.200,299.600 206.470,299.600 205.367 C 299.600 204.489,297.904 204.706,296.943 205.707 M292.243 213.931 C 291.845 214.575,292.504 216.000,293.200 216.000 C 294.045 216.000,294.583 214.364,293.885 213.920 C 293.246 213.514,292.497 213.519,292.243 213.931 M290.400 218.357 C 290.400 219.278,291.609 219.828,292.062 219.114 C 292.660 218.171,292.410 217.600,291.400 217.600 C 290.686 217.600,290.400 217.816,290.400 218.357 M290.227 220.756 C 290.088 220.981,289.710 221.064,289.387 220.940 C 288.963 220.777,288.800 221.005,288.800 221.757 C 288.800 222.523,288.594 222.800,288.024 222.800 C 287.081 222.800,286.714 223.310,287.041 224.164 C 287.406 225.114,288.800 224.973,288.800 223.987 C 288.800 223.518,289.181 223.021,289.700 222.812 C 290.195 222.613,290.459 222.439,290.286 222.425 C 290.113 222.411,290.173 222.025,290.418 221.566 C 290.869 220.724,290.697 219.996,290.227 220.756 M114.873 227.100 C 115.018 228.352,116.530 228.881,116.937 227.821 C 117.324 226.813,116.786 226.000,115.731 226.000 C 114.893 226.000,114.766 226.164,114.873 227.100 M285.467 226.267 C 284.856 226.878,285.206 228.400,285.957 228.400 C 286.705 228.400,287.200 227.670,287.200 226.567 C 287.200 225.993,285.956 225.777,285.467 226.267 M116.476 230.300 C 116.576 231.505,116.777 231.825,117.500 231.928 C 118.351 232.049,118.652 232.928,118.437 234.670 C 118.405 234.928,118.744 235.255,119.189 235.397 C 119.635 235.538,120.000 235.937,120.000 236.283 C 120.000 236.629,120.315 237.151,120.700 237.443 C 121.484 238.039,122.032 238.152,121.936 237.700 C 121.902 237.535,122.011 237.085,122.179 236.700 C 122.617 235.699,122.160 234.800,121.213 234.800 C 120.534 234.800,120.400 234.541,120.400 233.227 C 120.400 232.024,120.218 231.596,119.628 231.409 C 119.195 231.271,118.742 230.645,118.596 229.982 C 118.161 228.001,116.309 228.278,116.476 230.300 M284.054 229.654 C 283.319 229.929,283.151 230.230,283.299 231.004 C 283.480 231.953,283.229 232.173,282.124 232.035 C 281.836 231.999,281.598 232.655,281.524 233.688 C 281.425 235.061,281.261 235.377,280.700 235.282 C 280.143 235.189,280.000 235.454,280.000 236.586 C 280.000 237.907,280.056 237.972,280.800 237.507 C 281.240 237.232,281.600 236.734,281.600 236.399 C 281.600 236.064,282.005 235.612,282.500 235.395 C 283.158 235.106,283.400 234.663,283.400 233.745 C 283.400 232.911,283.715 232.235,284.339 231.730 C 285.627 230.687,285.415 229.144,284.054 229.654 M122.031 238.562 C 121.346 239.388,121.987 240.800,123.047 240.800 C 123.831 240.800,124.000 240.595,124.000 239.647 C 124.000 238.383,122.751 237.695,122.031 238.562 M278.000 239.600 C 278.000 240.613,278.156 240.800,279.000 240.800 C 279.844 240.800,280.000 240.613,280.000 239.600 C 280.000 238.587,279.844 238.400,279.000 238.400 C 278.156 238.400,278.000 238.587,278.000 239.600 M124.100 241.865 C 123.245 242.210,123.474 244.400,124.365 244.400 C 124.944 244.400,125.195 244.784,125.397 245.983 C 125.570 247.003,125.922 247.648,126.389 247.797 C 126.788 247.923,127.206 248.381,127.319 248.813 C 127.638 250.032,129.200 249.855,129.200 248.600 C 129.200 247.788,129.003 247.600,128.155 247.600 C 127.142 247.600,127.118 247.543,127.379 245.800 C 127.599 244.331,127.536 244.000,127.035 244.000 C 126.697 244.000,126.141 243.460,125.800 242.800 C 125.174 241.589,125.009 241.498,124.100 241.865 M276.171 242.973 C 276.008 243.623,275.635 244.000,275.157 244.000 C 274.637 244.000,274.402 244.282,274.406 244.900 C 274.413 245.849,275.183 247.413,275.194 246.500 C 275.197 246.225,275.421 246.045,275.691 246.100 C 275.960 246.155,276.243 245.795,276.318 245.300 C 276.408 244.713,276.733 244.400,277.254 244.400 C 277.889 244.400,278.027 244.175,277.927 243.303 C 277.756 241.824,276.518 241.591,276.171 242.973 M272.800 248.600 C 272.800 249.338,273.012 249.600,273.613 249.600 C 274.605 249.600,275.128 248.453,274.358 247.966 C 273.372 247.341,272.800 247.574,272.800 248.600 M128.885 252.086 C 128.987 253.422,130.575 253.704,130.904 252.444 C 131.170 251.426,130.783 250.949,129.700 250.961 C 128.964 250.970,128.816 251.174,128.885 252.086 M270.800 252.000 C 270.800 253.013,270.956 253.200,271.800 253.200 C 272.644 253.200,272.800 253.013,272.800 252.000 C 272.800 250.987,272.644 250.800,271.800 250.800 C 270.956 250.800,270.800 250.987,270.800 252.000 M269.700 253.493 C 269.425 253.589,269.200 254.196,269.200 254.843 C 269.200 255.744,268.955 256.113,268.155 256.417 C 267.330 256.731,267.161 257.002,267.350 257.707 C 267.481 258.198,267.592 258.827,267.595 259.103 C 267.599 259.507,267.759 259.507,268.400 259.107 C 268.840 258.832,269.200 258.201,269.200 257.704 C 269.200 257.067,269.436 256.800,270.000 256.800 C 270.440 256.800,270.820 256.665,270.845 256.500 C 271.134 254.557,271.129 253.596,270.831 253.781 C 270.632 253.904,270.408 253.851,270.334 253.662 C 270.260 253.474,269.975 253.398,269.700 253.493 M130.800 255.680 C 130.800 256.369,130.914 256.820,131.053 256.681 C 131.192 256.542,131.631 256.602,132.029 256.815 C 132.648 257.147,132.741 257.051,132.671 256.145 C 132.540 254.444,130.800 254.011,130.800 255.680 M132.880 257.280 C 132.248 257.912,132.262 258.530,132.900 258.147 C 133.250 257.936,133.238 258.046,132.860 258.512 C 132.252 259.262,133.211 260.688,133.997 260.202 C 134.224 260.061,134.400 260.364,134.400 260.896 C 134.400 261.770,135.046 262.800,135.595 262.800 C 136.306 262.800,135.944 260.479,135.203 260.285 C 134.485 260.097,134.104 258.672,134.353 257.100 C 134.427 256.626,133.409 256.751,132.880 257.280 M265.600 261.159 C 265.600 262.251,265.691 262.341,266.500 262.041 C 266.997 261.857,267.400 261.371,267.400 260.954 C 267.400 260.477,267.070 260.153,266.500 260.072 C 265.736 259.964,265.600 260.128,265.600 261.159 M264.027 263.367 C 263.302 264.241,263.673 265.381,264.732 265.531 C 265.555 265.649,265.641 265.521,265.528 264.362 C 265.384 262.896,264.761 262.483,264.027 263.367 M136.000 264.400 C 136.000 265.413,136.156 265.600,137.000 265.600 C 137.844 265.600,138.000 265.413,138.000 264.400 C 138.000 263.387,137.844 263.200,137.000 263.200 C 136.156 263.200,136.000 263.387,136.000 264.400 M137.929 267.845 C 138.049 268.870,138.278 269.200,138.870 269.200 C 139.955 269.200,139.719 267.203,138.586 266.788 C 137.852 266.519,137.787 266.623,137.929 267.845 M262.900 266.682 C 262.261 266.805,262.000 267.138,262.000 267.828 C 262.000 268.533,261.781 268.800,261.200 268.800 C 260.578 268.800,260.400 269.067,260.400 270.000 C 260.400 271.523,261.783 271.718,262.152 270.248 C 262.284 269.724,262.753 269.201,263.196 269.085 C 263.783 268.932,264.000 268.541,264.000 267.637 C 264.000 266.957,263.955 266.425,263.900 266.454 C 263.845 266.484,263.395 266.587,262.900 266.682 M140.800 270.387 C 140.800 270.601,140.530 270.671,140.200 270.545 C 139.224 270.170,139.523 270.961,140.534 271.430 C 141.378 271.821,141.446 271.776,141.284 270.930 C 141.107 270.000,140.800 269.657,140.800 270.387 M141.497 272.700 C 141.253 273.190,141.378 274.200,141.683 274.200 C 141.838 274.200,142.238 274.560,142.570 275.000 C 143.146 275.762,143.175 275.730,143.187 274.343 C 143.196 273.374,142.988 272.804,142.567 272.643 C 141.760 272.333,141.679 272.337,141.497 272.700 M258.473 273.500 C 258.564 274.291,258.825 274.600,259.400 274.600 C 259.975 274.600,260.236 274.291,260.327 273.500 C 260.436 272.546,260.313 272.400,259.400 272.400 C 258.487 272.400,258.364 272.546,258.473 273.500 M143.356 276.170 C 142.985 277.138,143.483 278.000,144.414 278.000 C 145.093 278.000,145.229 277.791,145.127 276.903 C 144.985 275.673,143.744 275.160,143.356 276.170 M257.725 275.879 C 257.198 275.981,256.800 276.398,256.725 276.925 C 256.644 277.487,256.269 277.847,255.673 277.931 C 254.946 278.034,254.761 278.293,254.816 279.131 C 254.930 280.902,254.832 281.134,254.055 280.930 C 253.193 280.705,252.752 281.529,253.074 282.761 C 253.524 284.483,255.200 283.544,255.200 281.571 C 255.200 281.151,255.560 280.582,256.000 280.307 C 256.440 280.032,256.800 279.444,256.800 278.999 C 256.800 278.543,257.194 278.017,257.700 277.795 C 258.221 277.566,258.619 277.021,258.645 276.500 C 258.670 276.005,258.670 275.625,258.645 275.654 C 258.620 275.684,258.206 275.786,257.725 275.879 M145.423 279.637 C 145.546 279.837,145.435 280.000,145.175 280.000 C 144.825 280.000,144.818 280.139,145.148 280.537 C 145.393 280.832,145.460 281.207,145.297 281.370 C 145.133 281.533,145.180 281.630,145.400 281.586 C 146.335 281.397,146.800 281.647,146.800 282.338 C 146.800 283.893,148.262 284.592,148.545 283.173 C 148.846 281.671,148.615 281.200,147.576 281.200 C 147.083 281.200,146.800 280.926,146.800 280.447 C 146.800 280.030,146.443 279.600,145.999 279.484 C 145.559 279.369,145.300 279.438,145.423 279.637 M148.550 285.387 C 148.200 286.297,148.558 286.914,149.521 287.061 C 150.260 287.174,150.400 287.005,150.400 285.997 C 150.400 284.691,148.995 284.227,148.550 285.387 M251.480 285.053 C 251.079 285.454,251.134 286.712,251.564 286.978 C 252.267 287.412,253.243 286.707,253.121 285.853 C 253.000 285.008,252.009 284.524,251.480 285.053 M249.600 289.013 C 249.600 290.363,249.421 290.899,248.900 291.113 C 248.515 291.271,248.157 291.805,248.105 292.300 C 247.977 293.505,248.258 293.434,248.956 292.086 C 249.272 291.473,249.969 290.738,250.502 290.452 C 251.942 289.682,252.007 287.200,250.588 287.200 C 249.683 287.200,249.600 287.352,249.600 289.013 M150.400 289.200 C 150.400 290.027,150.596 290.400,151.032 290.400 C 151.398 290.400,151.929 291.073,152.293 292.000 C 152.639 292.880,153.144 293.600,153.416 293.600 C 153.688 293.600,153.903 293.825,153.893 294.100 C 153.840 295.510,154.063 296.000,154.757 296.000 C 155.457 296.000,156.000 295.278,156.000 294.346 C 156.000 294.133,155.497 293.783,154.882 293.568 C 153.895 293.225,153.782 293.015,153.925 291.789 C 154.074 290.517,154.000 290.400,153.044 290.400 C 152.151 290.400,152.000 290.227,152.000 289.200 C 152.000 288.267,151.822 288.000,151.200 288.000 C 150.578 288.000,150.400 288.267,150.400 289.200 M246.239 293.894 C 245.533 294.601,246.038 296.000,247.000 296.000 C 247.827 296.000,248.000 295.808,248.000 294.885 C 248.000 293.824,246.918 293.215,246.239 293.894 M246.000 296.733 C 246.000 296.990,245.640 297.200,245.200 297.200 C 244.606 297.200,244.400 297.467,244.400 298.237 C 244.400 298.938,244.141 299.343,243.600 299.484 C 243.092 299.617,242.800 300.030,242.800 300.614 C 242.800 301.120,242.685 301.835,242.544 302.202 C 242.341 302.730,242.489 302.842,243.244 302.735 C 244.058 302.620,244.200 302.377,244.200 301.100 C 244.200 299.702,244.486 299.393,245.650 299.536 C 245.955 299.574,246.452 296.719,246.188 296.454 C 246.084 296.351,246.000 296.477,246.000 296.733 M155.600 298.192 C 155.600 298.887,155.870 299.253,156.500 299.412 C 157.204 299.591,157.417 299.954,157.476 301.082 C 157.544 302.382,158.080 303.177,158.900 303.194 C 159.065 303.197,159.200 302.300,159.200 301.200 C 159.200 299.467,159.093 299.200,158.400 299.200 C 157.813 299.200,157.600 298.933,157.600 298.200 C 157.600 297.400,157.400 297.200,156.600 297.200 C 155.802 297.200,155.600 297.401,155.600 298.192 M159.569 303.071 C 159.553 303.252,159.483 303.684,159.415 304.032 C 159.249 304.876,160.643 305.786,160.935 305.024 C 161.292 304.095,160.951 303.005,160.262 302.871 C 159.898 302.800,159.586 302.890,159.569 303.071 M160.998 306.404 C 160.569 307.097,161.219 308.400,161.994 308.400 C 162.820 308.400,163.161 307.752,162.888 306.700 C 162.692 305.945,161.406 305.743,160.998 306.404 M238.872 307.300 C 238.956 307.891,239.275 308.200,239.800 308.200 C 240.325 308.200,240.644 307.891,240.728 307.300 C 240.833 306.562,240.666 306.400,239.800 306.400 C 238.934 306.400,238.767 306.562,238.872 307.300 M163.500 309.900 C 162.737 310.073,162.613 310.686,163.166 311.558 C 163.648 312.319,164.800 311.810,164.800 310.836 C 164.800 309.917,164.471 309.679,163.500 309.900 M237.200 310.800 C 237.200 311.733,237.022 312.000,236.400 312.000 C 235.646 312.000,235.333 313.134,235.558 315.045 C 235.589 315.312,235.207 315.414,234.605 315.299 C 233.757 315.137,233.600 315.257,233.600 316.068 C 233.600 317.279,235.044 317.522,235.408 316.373 C 235.544 315.948,235.998 315.415,236.418 315.190 C 236.971 314.895,237.143 314.448,237.042 313.578 C 236.942 312.714,237.114 312.260,237.651 311.973 C 238.063 311.752,238.405 311.713,238.412 311.886 C 238.419 312.059,238.613 311.876,238.844 311.479 C 239.145 310.962,239.127 310.594,238.783 310.179 C 237.966 309.195,237.200 309.495,237.200 310.800 M164.551 313.483 C 164.614 314.293,164.887 315.029,165.156 315.119 C 165.653 315.284,165.794 315.429,167.187 317.200 L 167.973 318.200 167.987 316.700 C 167.998 315.478,167.856 315.200,167.224 315.200 C 166.620 315.200,166.421 314.875,166.324 313.738 C 166.226 312.584,166.014 312.247,165.317 312.143 C 164.526 312.024,164.447 312.164,164.551 313.483 M231.843 318.633 C 231.306 320.031,231.575 320.800,232.600 320.800 C 233.476 320.800,233.600 320.627,233.600 319.400 C 233.600 317.890,232.339 317.340,231.843 318.633 M168.000 319.655 C 168.000 320.610,168.166 320.800,169.000 320.800 C 169.787 320.800,170.000 320.597,170.000 319.847 C 170.000 319.147,169.733 318.842,169.000 318.702 C 168.122 318.534,168.000 318.650,168.000 319.655 M230.500 321.500 C 230.225 321.592,230.000 322.179,230.000 322.806 C 230.000 323.682,229.793 323.974,229.100 324.072 C 228.605 324.142,228.245 324.335,228.300 324.500 C 228.355 324.665,228.400 325.351,228.400 326.024 C 228.400 326.751,228.565 327.145,228.807 326.996 C 229.030 326.858,229.092 326.549,228.945 326.311 C 228.788 326.057,228.862 325.991,229.121 326.151 C 229.379 326.311,229.829 325.918,230.192 325.216 C 230.536 324.550,231.017 324.050,231.260 324.103 C 231.504 324.156,231.763 323.555,231.836 322.767 C 231.967 321.357,231.697 321.101,230.500 321.500 M169.924 323.001 C 170.012 323.755,170.200 324.357,170.342 324.339 C 171.187 324.229,171.600 324.487,171.600 325.122 C 171.600 325.520,172.050 326.455,172.600 327.200 C 173.150 327.945,173.600 328.698,173.600 328.873 C 173.600 329.048,173.915 329.556,174.300 330.003 C 174.685 330.449,175.091 331.306,175.203 331.907 C 175.341 332.656,175.688 333.040,176.303 333.128 C 177.661 333.321,177.573 331.322,176.200 330.800 C 175.394 330.494,175.200 330.146,175.200 329.010 C 175.200 327.760,175.083 327.600,174.165 327.600 C 173.179 327.600,173.143 327.524,173.399 326.003 C 173.648 324.534,173.585 324.374,172.611 324.004 C 172.028 323.783,171.641 323.458,171.750 323.282 C 172.063 322.774,171.337 321.870,170.515 321.745 C 169.880 321.648,169.789 321.841,169.924 323.001 M226.400 328.600 C 226.400 329.400,226.600 329.600,227.400 329.600 C 228.200 329.600,228.400 329.400,228.400 328.600 C 228.400 327.800,228.200 327.600,227.400 327.600 C 226.600 327.600,226.400 327.800,226.400 328.600 M225.700 330.544 C 224.411 331.182,224.408 333.312,225.695 333.128 C 226.428 333.023,226.601 332.727,226.648 331.500 C 226.679 330.675,226.681 330.022,226.652 330.049 C 226.624 330.076,226.195 330.299,225.700 330.544 M177.654 334.854 C 176.924 335.127,176.810 335.330,177.151 335.741 C 177.394 336.034,177.460 336.421,177.297 336.601 C 177.133 336.780,177.322 336.812,177.715 336.670 C 178.470 336.399,179.322 337.802,178.889 338.600 C 178.769 338.820,178.818 338.868,178.996 338.706 C 179.175 338.545,179.536 338.706,179.799 339.066 C 180.212 339.631,180.312 339.541,180.541 338.396 C 180.844 336.881,180.862 336.921,179.800 336.738 C 179.308 336.653,178.923 336.196,178.800 335.550 C 178.626 334.635,178.479 334.546,177.654 334.854 M222.919 335.587 C 222.806 336.019,222.373 336.482,221.957 336.614 C 221.400 336.791,221.200 337.233,221.200 338.289 C 221.200 339.832,222.444 339.350,223.003 337.590 C 223.126 337.203,223.581 336.794,224.013 336.681 C 224.480 336.559,224.800 336.134,224.800 335.637 C 224.800 334.524,223.208 334.481,222.919 335.587 M180.400 340.419 C 180.400 340.602,180.599 340.876,180.843 341.026 C 181.151 341.217,181.121 341.404,180.743 341.644 C 180.363 341.884,180.531 341.990,181.300 341.994 C 182.830 342.002,182.926 340.230,181.400 340.142 C 180.850 340.111,180.400 340.235,180.400 340.419 M219.398 340.404 C 218.912 341.190,219.589 342.328,220.414 342.112 C 221.498 341.829,221.506 340.000,220.424 340.000 C 219.997 340.000,219.535 340.182,219.398 340.404 M182.400 344.600 C 182.400 345.390,182.602 345.600,183.363 345.600 C 184.082 345.600,184.279 345.777,184.144 346.300 C 184.044 346.685,184.421 347.620,184.981 348.378 C 185.542 349.135,186.000 350.080,186.000 350.478 C 186.000 350.875,186.135 351.179,186.300 351.153 C 187.184 351.013,187.600 351.284,187.600 352.000 C 187.600 352.440,187.791 352.800,188.024 352.800 C 188.257 352.800,188.312 352.575,188.147 352.300 C 187.929 351.937,188.025 351.945,188.499 352.329 C 188.858 352.620,189.208 353.249,189.276 353.726 C 189.355 354.282,189.761 354.668,190.400 354.797 C 190.950 354.909,191.400 355.270,191.400 355.600 C 191.400 356.002,191.884 356.240,192.868 356.322 C 194.777 356.481,194.791 355.197,192.886 354.622 C 192.089 354.381,191.593 353.946,191.518 353.422 C 191.453 352.970,191.175 352.578,190.900 352.550 C 190.625 352.523,190.220 352.478,190.000 352.450 C 189.780 352.423,189.600 352.150,189.600 351.843 C 189.600 351.537,189.143 351.172,188.584 351.032 C 188.025 350.891,187.665 350.618,187.785 350.424 C 188.170 349.801,187.537 348.800,186.757 348.800 C 186.143 348.800,186.000 348.504,186.000 347.228 C 186.000 345.902,185.859 345.636,185.100 345.528 C 184.522 345.446,184.154 345.078,184.072 344.500 C 183.885 343.182,182.400 343.271,182.400 344.600 M217.600 344.573 C 217.600 345.183,217.312 345.638,216.828 345.791 C 216.403 345.926,215.948 346.528,215.816 347.128 C 215.684 347.729,215.176 348.396,214.688 348.610 C 214.200 348.825,213.742 349.405,213.672 349.900 C 213.602 350.395,213.287 350.800,212.972 350.800 C 212.657 350.800,212.400 351.074,212.400 351.410 C 212.400 351.745,211.950 352.191,211.400 352.400 C 210.788 352.633,210.400 353.094,210.400 353.590 C 210.400 354.069,210.114 354.428,209.700 354.468 C 209.315 354.506,208.730 354.577,208.400 354.626 C 208.070 354.675,207.614 354.734,207.386 354.757 C 207.158 354.781,206.971 355.160,206.971 355.600 C 206.971 356.711,208.546 356.654,209.700 355.500 C 210.195 355.005,210.960 354.600,211.400 354.600 C 211.925 354.600,212.244 354.291,212.328 353.700 C 212.411 353.111,212.731 352.800,213.251 352.800 C 213.689 352.800,213.935 352.618,213.798 352.396 C 213.660 352.174,214.093 351.680,214.759 351.297 C 215.425 350.915,216.022 350.242,216.085 349.801 C 216.148 349.361,216.470 349.000,216.800 349.000 C 217.218 349.000,217.437 348.493,217.522 347.325 C 217.620 345.978,217.808 345.625,218.484 345.525 C 219.791 345.331,219.893 343.600,218.597 343.600 C 217.808 343.600,217.600 343.802,217.600 344.573 M196.400 356.786 C 196.400 357.014,196.591 357.200,196.824 357.200 C 197.057 357.200,197.128 357.393,196.982 357.630 C 196.797 357.928,197.980 358.020,200.858 357.930 C 204.216 357.825,205.000 357.686,205.000 357.200 C 205.000 356.711,204.205 356.579,200.700 356.486 C 197.933 356.413,196.400 356.520,196.400 356.786 " stroke="none" fill="#9dd1b0" fill-rule="evenodd"></path><path id="path4" d="M49.309 104.400 C 49.309 105.390,49.387 105.795,49.482 105.300 C 49.578 104.805,49.578 103.995,49.482 103.500 C 49.387 103.005,49.309 103.410,49.309 104.400 M48.800 111.600 C 48.800 112.069,49.107 112.069,50.200 111.600 C 50.909 111.295,50.875 111.253,49.900 111.228 C 49.295 111.213,48.800 111.380,48.800 111.600 M56.194 123.610 C 55.879 124.119,56.506 124.334,57.379 124.017 C 58.119 123.748,58.114 123.723,57.279 123.505 C 56.796 123.378,56.308 123.426,56.194 123.610 M158.274 206.155 C 158.100 206.790,157.517 207.887,156.979 208.592 C 156.440 209.298,156.000 210.052,156.000 210.268 C 156.000 210.484,155.550 211.083,155.000 211.600 C 154.450 212.117,154.000 212.859,154.000 213.250 C 154.000 213.640,153.480 214.734,152.844 215.680 C 152.208 216.626,151.399 218.030,151.046 218.800 C 150.693 219.570,149.684 221.190,148.803 222.400 C 147.922 223.610,147.201 224.739,147.201 224.908 C 147.200 225.077,146.713 225.977,146.117 226.908 C 145.521 227.839,144.338 229.950,143.487 231.600 C 142.636 233.250,141.704 234.870,141.415 235.200 C 141.126 235.530,140.306 236.970,139.592 238.400 C 138.878 239.830,137.957 241.429,137.547 241.954 C 137.136 242.479,136.800 243.175,136.800 243.501 C 136.800 243.827,136.260 244.709,135.600 245.461 C 134.940 246.213,134.400 247.009,134.400 247.230 C 134.400 247.451,133.996 248.210,133.501 248.916 C 133.007 249.622,132.558 250.274,132.503 250.365 C 132.448 250.456,131.780 250.506,131.018 250.478 C 130.255 250.449,129.512 250.619,129.366 250.856 C 129.191 251.139,129.391 251.193,129.950 251.016 C 130.866 250.725,130.931 250.884,130.810 253.098 C 130.752 254.156,130.929 254.469,131.763 254.786 C 132.613 255.109,132.763 255.387,132.642 256.419 C 132.539 257.308,132.621 257.539,132.929 257.231 C 133.420 256.740,134.424 256.648,134.353 257.100 C 134.105 258.669,134.485 260.097,135.200 260.284 C 135.801 260.441,136.000 260.830,136.000 261.847 C 136.000 263.024,136.130 263.200,137.000 263.200 C 137.915 263.200,138.000 263.350,138.000 264.953 C 138.000 266.370,138.153 266.747,138.800 266.916 C 139.515 267.103,139.792 268.166,139.566 269.855 C 139.494 270.391,140.588 270.743,140.883 270.279 C 141.143 269.871,141.393 271.052,141.261 272.060 C 141.242 272.203,141.671 272.431,142.213 272.568 C 143.046 272.777,143.200 273.053,143.200 274.339 C 143.200 275.663,143.319 275.859,144.100 275.832 C 144.918 275.803,145.000 275.983,145.000 277.800 C 145.000 279.644,145.070 279.790,145.900 279.675 C 146.574 279.581,146.800 279.750,146.800 280.347 C 146.800 280.869,147.110 281.188,147.700 281.272 C 148.507 281.387,148.587 281.590,148.472 283.250 C 148.348 285.045,148.374 285.094,149.372 284.903 C 150.341 284.718,150.400 284.801,150.400 286.353 C 150.400 287.733,150.530 288.000,151.200 288.000 C 151.822 288.000,152.000 288.267,152.000 289.200 C 152.000 290.227,152.151 290.400,153.044 290.400 C 154.000 290.400,154.074 290.517,153.925 291.789 C 153.782 293.017,153.894 293.224,154.889 293.571 C 155.941 293.938,155.998 294.070,155.757 295.582 C 155.509 297.128,155.545 297.200,156.549 297.200 C 157.403 297.200,157.600 297.387,157.600 298.200 C 157.600 298.933,157.813 299.200,158.400 299.200 C 159.107 299.200,159.201 299.469,159.206 301.500 C 159.210 302.988,159.337 303.603,159.566 303.242 C 160.275 302.122,161.148 303.052,160.956 304.722 C 160.784 306.222,160.822 306.285,161.788 306.100 C 162.877 305.892,162.954 306.091,162.807 308.731 C 162.742 309.912,162.838 310.047,163.667 309.931 C 164.453 309.821,164.598 309.974,164.584 310.900 C 164.576 311.505,164.711 312.023,164.884 312.050 C 165.058 312.078,165.425 312.123,165.700 312.150 C 165.977 312.178,166.255 312.869,166.324 313.700 C 166.420 314.858,166.620 315.200,167.201 315.200 C 167.801 315.200,167.979 315.546,168.077 316.900 C 168.178 318.299,168.355 318.622,169.077 318.725 C 169.771 318.824,169.980 319.158,170.077 320.325 C 170.150 321.197,170.410 321.800,170.715 321.800 C 171.321 321.800,172.034 322.821,171.750 323.282 C 171.641 323.458,172.028 323.783,172.611 324.004 C 173.585 324.374,173.648 324.534,173.399 326.003 C 173.143 327.524,173.179 327.600,174.165 327.600 C 175.083 327.600,175.200 327.760,175.200 329.010 C 175.200 330.162,175.391 330.492,176.244 330.817 C 177.225 331.190,177.272 331.326,177.012 333.060 C 176.739 334.882,176.749 334.903,177.768 334.708 C 178.683 334.533,178.800 334.641,178.800 335.655 C 178.800 336.285,178.935 336.779,179.100 336.753 C 180.534 336.526,180.806 336.821,180.563 338.341 C 180.317 339.880,181.046 340.789,182.036 340.178 C 182.236 340.054,182.400 340.773,182.400 341.776 C 182.400 343.333,182.517 343.600,183.200 343.600 C 183.911 343.600,184.218 344.323,184.067 345.641 C 184.052 345.773,184.481 345.797,185.020 345.694 C 185.932 345.520,186.000 345.621,186.000 347.153 C 186.000 348.502,186.137 348.800,186.757 348.800 C 187.537 348.800,188.170 349.801,187.785 350.424 C 187.665 350.618,188.025 350.891,188.584 351.032 C 189.143 351.172,189.600 351.537,189.600 351.843 C 189.600 352.150,189.780 352.423,190.000 352.450 C 190.220 352.478,190.625 352.523,190.900 352.550 C 191.175 352.578,191.458 353.005,191.528 353.500 C 191.604 354.039,191.934 354.400,192.351 354.400 C 192.734 354.400,193.396 354.683,193.824 355.030 C 194.251 355.376,194.387 355.553,194.128 355.423 C 193.868 355.293,193.539 355.374,193.398 355.603 C 193.256 355.832,193.289 355.987,193.470 355.946 C 193.652 355.906,194.078 355.997,194.418 356.148 C 195.740 356.736,207.000 356.246,207.000 355.600 C 207.000 354.745,207.356 354.575,209.107 354.599 C 210.502 354.617,210.638 354.530,210.482 353.717 C 210.351 353.031,210.560 352.720,211.355 352.417 C 211.930 352.199,212.400 351.745,212.400 351.410 C 212.400 351.074,212.657 350.800,212.972 350.800 C 213.287 350.800,213.602 350.395,213.672 349.900 C 213.742 349.405,214.200 348.825,214.688 348.610 C 215.176 348.396,215.684 347.729,215.816 347.128 C 215.948 346.528,216.403 345.926,216.828 345.791 C 217.312 345.638,217.600 345.183,217.600 344.573 C 217.600 343.795,217.806 343.600,218.627 343.600 C 219.588 343.600,219.646 343.492,219.527 341.900 C 219.415 340.396,219.504 340.185,220.300 340.072 C 221.056 339.965,221.200 339.697,221.200 338.399 C 221.200 337.235,221.386 336.795,221.957 336.614 C 222.373 336.482,222.806 336.019,222.919 335.587 C 223.041 335.120,223.466 334.800,223.963 334.800 C 224.423 334.800,224.779 334.665,224.753 334.500 C 224.466 332.685,224.886 330.952,225.700 330.595 C 226.416 330.281,226.573 329.934,226.470 328.900 C 226.352 327.727,226.444 327.600,227.400 327.600 C 228.401 327.600,228.454 327.504,228.337 325.900 C 228.228 324.400,228.318 324.185,229.106 324.072 C 229.799 323.973,230.000 323.680,230.000 322.772 C 230.000 322.127,230.180 321.578,230.400 321.550 C 230.620 321.523,231.025 321.473,231.300 321.441 C 231.575 321.409,231.742 321.047,231.670 320.637 C 231.431 319.265,231.976 318.000,232.808 318.000 C 233.451 318.000,233.600 317.729,233.600 316.553 C 233.600 315.224,233.682 315.122,234.605 315.299 C 235.207 315.414,235.589 315.312,235.558 315.045 C 235.333 313.134,235.646 312.000,236.400 312.000 C 237.029 312.000,237.200 311.733,237.200 310.753 C 237.200 309.717,237.331 309.541,237.974 309.709 C 238.920 309.957,239.262 309.209,238.939 307.596 C 238.722 306.511,238.798 306.400,239.750 306.400 C 240.521 306.400,240.800 306.195,240.800 305.627 C 240.800 305.196,241.167 304.737,241.629 304.591 C 242.144 304.427,242.373 304.106,242.234 303.743 C 242.108 303.416,242.183 303.266,242.404 303.402 C 242.621 303.537,242.771 303.321,242.736 302.923 C 242.529 300.536,242.801 299.507,243.586 299.712 C 244.019 299.825,244.357 299.801,244.339 299.659 C 244.146 298.179,244.480 297.200,245.177 297.200 C 245.805 297.200,245.978 296.874,246.077 295.500 C 246.175 294.145,246.353 293.800,246.955 293.798 C 247.727 293.796,248.586 292.225,248.177 291.563 C 248.054 291.363,248.253 291.200,248.619 291.200 C 249.047 291.200,249.203 291.415,249.055 291.800 C 248.929 292.130,249.011 292.400,249.238 292.400 C 249.465 292.400,249.618 292.085,249.579 291.700 C 249.282 288.779,249.611 287.200,250.516 287.200 C 251.252 287.200,251.428 286.984,251.416 286.100 C 251.403 285.196,251.568 285.007,252.345 285.037 C 253.224 285.071,253.276 284.955,253.098 283.374 C 252.878 281.418,253.243 280.577,254.160 280.929 C 254.832 281.187,254.931 280.916,254.816 279.131 C 254.761 278.293,254.946 278.034,255.673 277.931 C 256.269 277.847,256.644 277.487,256.725 276.925 C 256.802 276.379,257.179 276.002,257.725 275.925 C 258.492 275.815,258.584 275.591,258.473 274.100 C 258.354 272.508,258.412 272.400,259.373 272.400 C 260.324 272.400,260.400 272.266,260.400 270.600 C 260.400 269.067,260.519 268.800,261.200 268.800 C 261.781 268.800,262.000 268.533,262.000 267.828 C 262.000 267.124,262.249 266.820,262.900 266.728 C 263.657 266.620,263.783 266.385,263.692 265.251 C 263.572 263.757,264.237 262.652,265.064 262.969 C 265.458 263.120,265.600 262.742,265.600 261.541 C 265.600 259.994,265.656 259.917,266.648 260.107 C 267.678 260.304,267.692 260.276,267.454 258.542 C 267.232 256.925,267.296 256.744,268.206 256.398 C 268.951 256.114,269.200 255.728,269.200 254.853 C 269.200 254.184,269.456 253.587,269.800 253.455 C 270.130 253.329,270.400 253.429,270.400 253.679 C 270.400 253.929,270.530 254.004,270.688 253.845 C 270.847 253.687,270.923 252.937,270.857 252.179 C 270.750 250.933,270.838 250.800,271.769 250.800 C 272.708 250.800,272.800 250.655,272.800 249.175 C 272.800 247.719,272.894 247.563,273.700 247.675 C 274.538 247.791,274.592 247.670,274.480 245.900 C 274.375 244.244,274.460 244.000,275.137 244.000 C 275.640 244.000,276.005 243.633,276.175 242.958 C 276.372 242.171,276.627 241.966,277.218 242.121 C 277.915 242.303,278.000 242.113,278.000 240.363 C 278.000 238.536,278.069 238.400,279.000 238.400 C 279.902 238.400,280.000 238.241,280.000 236.782 C 280.000 235.464,280.129 235.187,280.700 235.282 C 281.261 235.377,281.425 235.061,281.524 233.688 C 281.598 232.655,281.836 231.999,282.124 232.035 C 283.228 232.173,283.480 231.953,283.299 231.007 C 283.149 230.223,283.323 229.933,284.129 229.627 C 284.936 229.320,285.176 228.922,285.275 227.720 C 285.377 226.480,285.571 226.176,286.328 226.069 C 287.134 225.954,287.239 225.745,287.128 224.469 C 287.018 223.204,287.125 222.982,287.900 222.872 C 288.563 222.778,288.800 222.477,288.800 221.729 C 288.800 221.000,288.966 220.778,289.389 220.940 C 289.730 221.071,290.238 220.796,290.595 220.285 C 290.961 219.764,291.047 219.349,290.806 219.269 C 289.880 218.960,290.394 217.600,291.436 217.600 C 292.424 217.600,292.466 217.513,292.336 215.700 C 292.216 214.021,292.293 213.800,293.000 213.800 C 293.953 213.800,294.403 212.946,294.115 211.684 C 293.993 211.150,294.167 210.478,294.532 210.075 C 296.176 208.258,296.073 208.251,269.471 208.208 C 251.264 208.178,244.333 208.042,243.928 207.707 C 243.433 207.295,221.778 207.160,162.527 207.198 L 158.853 207.200 158.722 206.100 L 158.590 205.000 158.274 206.155 M106.064 208.251 C 106.000 209.507,106.399 210.062,107.700 210.525 C 108.783 210.911,108.527 210.428,107.427 210.010 C 106.728 209.745,106.408 209.268,106.291 208.320 L 106.128 207.000 106.064 208.251 M166.908 210.186 C 183.642 210.499,229.570 210.378,231.756 210.015 C 233.296 209.759,235.098 209.760,236.956 210.018 C 241.384 210.632,245.509 210.880,249.000 210.743 C 250.760 210.673,260.840 210.613,271.400 210.608 L 290.600 210.600 290.729 211.506 C 290.799 212.004,290.214 213.766,289.429 215.421 C 288.643 217.076,287.996 218.559,287.992 218.715 C 287.988 218.872,287.133 219.928,286.092 221.063 C 285.051 222.198,283.688 223.957,283.063 224.972 C 282.437 225.987,281.405 227.087,280.769 227.416 C 279.561 228.041,279.363 228.543,279.070 231.727 C 278.953 232.995,278.608 233.920,278.061 234.429 C 277.604 234.855,277.038 235.915,276.804 236.785 C 276.570 237.656,275.777 239.156,275.042 240.118 C 274.307 241.081,273.490 242.522,273.226 243.321 C 272.963 244.119,271.967 245.640,271.014 246.700 C 268.880 249.074,267.019 252.179,266.163 254.798 C 265.806 255.888,264.904 257.638,264.157 258.688 C 263.411 259.738,262.800 260.796,262.800 261.039 C 262.800 261.722,260.939 265.061,260.078 265.922 C 259.655 266.345,258.538 268.232,257.596 270.115 C 256.654 271.998,254.952 274.607,253.814 275.912 C 252.676 277.217,251.517 278.896,251.239 279.643 C 250.470 281.707,249.769 283.088,247.605 286.800 C 246.515 288.670,245.336 290.830,244.986 291.600 C 244.142 293.456,242.898 295.962,242.207 297.200 C 241.900 297.750,241.264 299.010,240.794 300.000 C 240.324 300.990,239.368 302.368,238.670 303.062 C 236.968 304.753,236.545 305.312,236.239 306.278 C 236.096 306.727,235.624 307.416,235.190 307.809 C 234.755 308.202,234.400 308.919,234.400 309.402 C 234.400 310.474,232.670 313.833,231.414 315.200 C 230.909 315.750,229.624 317.910,228.558 320.000 C 227.492 322.090,226.038 324.643,225.327 325.672 C 224.615 326.702,223.513 328.682,222.877 330.072 C 222.241 331.463,220.984 333.399,220.083 334.375 C 219.022 335.525,218.355 336.680,218.191 337.652 C 218.052 338.478,217.693 339.357,217.394 339.605 C 217.096 339.852,216.738 340.572,216.599 341.204 C 216.461 341.835,215.460 343.267,214.377 344.385 C 213.293 345.503,212.051 347.116,211.616 347.969 C 211.175 348.832,210.155 349.918,209.312 350.420 C 208.481 350.915,207.250 351.949,206.577 352.717 C 204.803 354.743,195.897 354.843,194.825 352.849 C 194.633 352.492,193.629 351.570,192.594 350.800 C 191.559 350.030,190.544 349.040,190.339 348.600 C 189.635 347.090,188.997 346.146,187.353 344.175 C 185.686 342.177,183.200 337.888,183.200 337.010 C 183.200 336.748,182.456 335.738,181.546 334.767 C 180.636 333.795,179.450 331.920,178.910 330.600 C 178.369 329.280,177.603 327.840,177.206 327.400 C 176.187 326.271,174.800 323.549,174.800 322.680 C 174.800 321.792,174.152 320.480,173.180 319.400 C 172.073 318.168,169.708 313.803,169.407 312.434 C 169.259 311.760,168.977 311.110,168.781 310.988 C 168.584 310.866,168.068 309.964,167.634 308.983 C 167.200 308.003,166.700 307.198,166.522 307.195 C 166.345 307.192,165.660 306.022,165.000 304.595 C 164.283 303.044,163.552 302.000,163.184 302.000 C 162.834 302.000,162.067 301.005,161.411 299.700 C 160.775 298.435,159.672 296.545,158.959 295.500 C 158.246 294.456,157.442 292.926,157.173 292.100 C 156.904 291.275,156.242 290.060,155.701 289.400 C 153.346 286.527,151.655 283.681,150.200 280.146 C 149.826 279.237,149.113 278.275,148.616 278.009 C 147.644 277.488,146.673 275.754,146.233 273.751 C 146.083 273.065,145.159 271.566,144.180 270.420 C 143.201 269.273,142.400 268.084,142.400 267.778 C 142.400 267.261,141.641 265.396,140.053 262.008 C 139.694 261.243,138.703 259.893,137.852 259.010 C 135.330 256.394,134.271 253.555,135.041 251.475 C 135.382 250.554,135.822 249.035,136.019 248.100 C 136.215 247.164,136.968 245.454,137.692 244.300 C 138.415 243.145,139.442 241.300,139.974 240.200 C 140.506 239.100,141.629 237.263,142.471 236.117 C 143.312 234.971,144.000 233.767,144.000 233.441 C 144.000 233.114,144.160 232.748,144.356 232.627 C 144.551 232.506,144.834 231.919,144.984 231.322 C 145.134 230.724,145.601 229.994,146.022 229.699 C 147.018 229.002,148.578 226.308,149.406 223.856 C 150.077 221.867,151.988 218.431,153.219 217.000 C 153.598 216.560,154.482 214.996,155.184 213.524 C 156.718 210.309,158.158 209.158,159.708 209.908 C 159.878 209.990,163.118 210.115,166.908 210.186 M123.826 241.558 C 123.705 241.754,124.037 241.889,124.564 241.858 C 125.092 241.826,125.440 241.665,125.338 241.500 C 125.082 241.085,124.095 241.123,123.826 241.558 M128.275 247.486 C 128.757 247.575,129.233 247.911,129.335 248.232 C 129.451 248.602,129.496 248.557,129.456 248.108 C 129.415 247.649,129.043 247.386,128.397 247.361 C 127.576 247.330,127.554 247.351,128.275 247.486 " stroke="none" fill="#b9cc50" fill-rule="evenodd"></path></g></svg>